<svg width="31" height="32" viewBox="0 0 31 32" fill="none" xmlns="http://www.w3.org/2000/svg">
<g filter="url(#filter0_d_81_3781)">
<path d="M25.6476 12.845L16.2726 2.42832C15.8778 1.98874 15.1195 1.98874 14.7247 2.42832L5.34972 12.845C5.21478 12.9946 5.12621 13.1801 5.09477 13.3791C5.06333 13.5781 5.09038 13.7819 5.17264 13.9658C5.33931 14.3419 5.71222 14.5835 6.12368 14.5835H8.20701V21.8752C8.20701 22.1515 8.31676 22.4164 8.51211 22.6118C8.70746 22.8071 8.97241 22.9169 9.24868 22.9169H12.3737C12.6499 22.9169 12.9149 22.8071 13.1103 22.6118C13.3056 22.4164 13.4153 22.1515 13.4153 21.8752V17.7085H17.582V21.8752C17.582 22.1515 17.6918 22.4164 17.8871 22.6118C18.0825 22.8071 18.3474 22.9169 18.6237 22.9169H21.7487C22.025 22.9169 22.2899 22.8071 22.4853 22.6118C22.6806 22.4164 22.7903 22.1515 22.7903 21.8752V14.5835H24.8737C25.0754 14.5844 25.273 14.5265 25.4425 14.417C25.6119 14.3075 25.7458 14.1511 25.8278 13.9668C25.9099 13.7825 25.9365 13.5783 25.9045 13.3791C25.8725 13.1799 25.7833 12.9943 25.6476 12.845Z" fill="white"/>
</g>
<defs>
<filter id="filter0_d_81_3781" x="0.0820312" y="1.09863" width="30.8359" height="30.8184" filterUnits="userSpaceOnUse" color-interpolation-filters="sRGB">
<feFlood flood-opacity="0" result="BackgroundImageFix"/>
<feColorMatrix in="SourceAlpha" type="matrix" values="0 0 0 0 0 0 0 0 0 0 0 0 0 0 0 0 0 0 127 0" result="hardAlpha"/>
<feOffset dy="4"/>
<feGaussianBlur stdDeviation="2.5"/>
<feComposite in2="hardAlpha" operator="out"/>
<feColorMatrix type="matrix" values="0 0 0 0 0 0 0 0 0 0 0 0 0 0 0 0 0 0 0.11 0"/>
<feBlend mode="normal" in2="BackgroundImageFix" result="effect1_dropShadow_81_3781"/>
<feBlend mode="normal" in="SourceGraphic" in2="effect1_dropShadow_81_3781" result="shape"/>
</filter>
</defs>
</svg>
