<svg width="332" height="297" viewBox="0 0 332 297" fill="none" xmlns="http://www.w3.org/2000/svg">
<g filter="url(#filter0_bd_81_3739)">
<path d="M36.2643 139.156H25.3392L27.3877 148.588L29.4361 155.844L30.8018 160.198V164.551L33.533 168.179V173.259L35.5815 181.24V209.538L20.5595 217.52L14.4141 226.953L11 234.208L28.0705 249.446L22.6079 260.33V269.037L28.0705 271.214H34.2159L38.3128 276.293V273.391L47.8722 266.86L50.6035 257.427H71.7709L76.5507 253.074H90.8899L96.3524 255.976L107.96 257.427H111.374L117.52 260.33H121.617L123.665 262.507H129.128L131.859 265.409H146.198V273.391H152.344L159.172 269.037L161.903 273.391L164.634 279.921L167.366 273.391V269.037L171.463 273.391L174.194 274.842L181.022 266.86L185.119 276.293L186.485 273.391H195.361L196.727 279.921H198.775L200.824 273.391L203.555 271.214L210.383 266.86L219.26 281.372L228.819 273.391L233.599 278.47L240.427 274.842L246.573 273.391L259.546 285V271.214V251.623L262.278 247.269L269.106 241.464L277.3 234.934L284.128 232.032L292.322 234.208L293.687 229.855L288.225 223.325L289.59 206.636L284.128 202.282L286.859 197.929V194.301L275.251 184.142L276.617 178.338L280.714 171.807H286.859L295.736 176.887H306.661L321 155.844L309.392 146.412L310.758 139.156L300.515 136.979H286.859L289.59 121.016L271.154 113.76L269.106 110.132L267.74 102.876L265.009 99.248V91.9921L254.084 84.7362L251.352 80.3826L254.084 73.8522L256.815 70.2243L258.863 66.5963L252.718 53.5356V35.3958H248.621L234.282 22.3351H222.674L220.626 28.1398H213.115L209.7 33.219L207.652 31.0422L206.969 17.9815L200.824 15.8047L196.044 13.628L187.167 19.4327L184.436 15.8047V11.4512L172.145 13.628L167.366 10L157.123 22.3351L152.344 30.3166H145.515H132.542L122.3 37.5726L119.568 56.438L128.445 59.3404L124.348 67.3219L109.326 70.2243V76.7546L101.132 80.3826L96.3524 86.1873L94.9868 107.955H90.8899V117.388L96.3524 119.565L94.9868 125.369H90.8899L86.793 117.388L75.8678 125.369H66.3084V136.253H58.1145L54.0176 139.156L45.141 136.253L36.2643 139.156Z" fill="white" fill-opacity="0.25" shape-rendering="crispEdges"/>
<path d="M36.2643 139.156H25.3392L27.3877 148.588L29.4361 155.844L30.8018 160.198V164.551L33.533 168.179V173.259L35.5815 181.24V209.538L20.5595 217.52L14.4141 226.953L11 234.208L28.0705 249.446L22.6079 260.33V269.037L28.0705 271.214H34.2159L38.3128 276.293V273.391L47.8722 266.86L50.6035 257.427H71.7709L76.5507 253.074H90.8899L96.3524 255.976L107.96 257.427H111.374L117.52 260.33H121.617L123.665 262.507H129.128L131.859 265.409H146.198V273.391H152.344L159.172 269.037L161.903 273.391L164.634 279.921L167.366 273.391V269.037L171.463 273.391L174.194 274.842L181.022 266.86L185.119 276.293L186.485 273.391H195.361L196.727 279.921H198.775L200.824 273.391L203.555 271.214L210.383 266.86L219.26 281.372L228.819 273.391L233.599 278.47L240.427 274.842L246.573 273.391L259.546 285V271.214V251.623L262.278 247.269L269.106 241.464L277.3 234.934L284.128 232.032L292.322 234.208L293.687 229.855L288.225 223.325L289.59 206.636L284.128 202.282L286.859 197.929V194.301L275.251 184.142L276.617 178.338L280.714 171.807H286.859L295.736 176.887H306.661L321 155.844L309.392 146.412L310.758 139.156L300.515 136.979H286.859L289.59 121.016L271.154 113.76L269.106 110.132L267.74 102.876L265.009 99.248V91.9921L254.084 84.7362L251.352 80.3826L254.084 73.8522L256.815 70.2243L258.863 66.5963L252.718 53.5356V35.3958H248.621L234.282 22.3351H222.674L220.626 28.1398H213.115L209.7 33.219L207.652 31.0422L206.969 17.9815L200.824 15.8047L196.044 13.628L187.167 19.4327L184.436 15.8047V11.4512L172.145 13.628L167.366 10L157.123 22.3351L152.344 30.3166H145.515H132.542L122.3 37.5726L119.568 56.438L128.445 59.3404L124.348 67.3219L109.326 70.2243V76.7546L101.132 80.3826L96.3524 86.1873L94.9868 107.955H90.8899V117.388L96.3524 119.565L94.9868 125.369H90.8899L86.793 117.388L75.8678 125.369H66.3084V136.253H58.1145L54.0176 139.156L45.141 136.253L36.2643 139.156Z" stroke="white" stroke-width="0.7" shape-rendering="crispEdges"/>
</g>
<defs>
<filter id="filter0_bd_81_3739" x="0.572266" y="0.518555" width="330.898" height="296.265" filterUnits="userSpaceOnUse" color-interpolation-filters="sRGB">
<feFlood flood-opacity="0" result="BackgroundImageFix"/>
<feGaussianBlur in="BackgroundImageFix" stdDeviation="2"/>
<feComposite in2="SourceAlpha" operator="in" result="effect1_backgroundBlur_81_3739"/>
<feColorMatrix in="SourceAlpha" type="matrix" values="0 0 0 0 0 0 0 0 0 0 0 0 0 0 0 0 0 0 127 0" result="hardAlpha"/>
<feOffset dy="1"/>
<feGaussianBlur stdDeviation="5"/>
<feComposite in2="hardAlpha" operator="out"/>
<feColorMatrix type="matrix" values="0 0 0 0 0 0 0 0 0 0 0 0 0 0 0 0 0 0 1 0"/>
<feBlend mode="normal" in2="effect1_backgroundBlur_81_3739" result="effect2_dropShadow_81_3739"/>
<feBlend mode="normal" in="SourceGraphic" in2="effect2_dropShadow_81_3739" result="shape"/>
</filter>
</defs>
</svg>
